<?xml version="1.0" standalone="no"?>
<!DOCTYPE svg PUBLIC "-//W3C//DTD SVG 20010904//EN"
 "http://www.w3.org/TR/2001/REC-SVG-20010904/DTD/svg10.dtd">
<svg version="1.0" xmlns="http://www.w3.org/2000/svg"
 width="700.000000pt" height="700.000000pt" viewBox="0 0 700.000000 700.000000"
 preserveAspectRatio="xMidYMid meet">
<metadata>
Created by potrace 1.14, written by Peter Selinger 2001-2017
</metadata>
<g transform="translate(0.000000,700.000000) scale(0.100000,-0.100000)"
fill="#000000" stroke="none">
<path d="M1667 6414 c-1 -1 -60 -4 -132 -8 -116 -5 -159 -10 -270 -31 -323
-60 -551 -278 -629 -600 -49 -201 -50 -243 -50 -1700 0 -1291 2 -1430 29
-1590 70 -409 319 -653 720 -705 39 -5 88 -12 110 -15 22 -3 164 -8 315 -11
151 -4 277 -8 278 -9 2 -2 4 -147 4 -322 0 -175 4 -343 9 -373 35 -221 251
-372 482 -336 102 16 58 -14 864 574 326 237 605 438 621 446 23 12 147 15
757 19 402 3 748 7 770 10 22 3 64 8 94 12 334 39 580 215 689 495 24 60 58
198 67 270 16 128 19 411 19 1550 0 1433 -2 1496 -50 1689 -40 158 -126 314
-218 393 -17 14 -44 38 -61 52 -62 54 -240 132 -344 151 -14 3 -35 7 -46 9
-27 5 -130 17 -190 23 -44 4 -3833 11 -3838 7z m648 -585 c7 0 1816 0 1915 0
11 0 359 1 485 1 738 1 796 -2 935 -34 60 -14 114 -52 122 -86 2 -8 7 -18 11
-21 5 -4 10 -24 10 -47 1 -22 5 -38 8 -36 10 6 19 -80 25 -231 9 -226 10 -935
1 -935 -5 0 -5 -5 -1 -11 7 -11 7 -1519 0 -1669 -6 -119 -16 -193 -29 -209 -9
-11 -9 -13 0 -8 8 5 7 -6 -3 -38 -10 -26 -20 -42 -26 -38 -6 3 -8 1 -5 -5 8
-12 -2 -42 -14 -42 -5 0 -18 -8 -29 -18 -11 -9 -25 -18 -30 -18 -6 -1 -12 -3
-15 -4 -3 -1 -9 -4 -15 -5 -5 -1 -11 -3 -12 -4 -12 -9 -167 -28 -248 -30 -41
-1 -91 -4 -110 -5 -19 -2 -41 1 -47 7 -7 5 -13 5 -13 0 0 -10 -175 -11 -186
-1 -4 4 -12 4 -18 0 -16 -10 -256 -10 -262 0 -3 5 -12 4 -20 -3 -11 -9 -18 -8
-31 2 -9 8 -14 9 -10 2 5 -8 -8 -11 -43 -11 -27 -1 -52 3 -55 9 -4 5 -12 6
-18 2 -17 -11 -217 -12 -223 -1 -3 5 -12 3 -21 -3 -12 -10 -16 -10 -24 2 -5 9
-9 10 -9 2 0 -13 -126 -14 -147 0 -6 4 -14 3 -17 -2 -3 -4 -17 -8 -31 -8 -15
0 -22 4 -18 11 5 8 3 8 -8 0 -8 -6 -32 -12 -54 -13 -22 -1 -47 -3 -55 -4 -145
-30 -213 -57 -309 -121 -28 -19 -51 -32 -51 -28 0 3 -6 -1 -12 -9 -19 -23
-154 -119 -167 -119 -6 0 -11 -4 -11 -9 0 -14 -78 -63 -89 -56 -6 3 -9 0 -6
-7 3 -8 -8 -21 -27 -32 -18 -11 -35 -22 -38 -26 -11 -14 -120 -90 -129 -90 -5
0 -12 -7 -15 -16 -4 -9 -13 -14 -22 -10 -8 3 -13 2 -10 -3 6 -8 -117 -101
-134 -101 -6 0 -10 -4 -10 -8 0 -4 -32 -30 -71 -57 -39 -28 -76 -55 -82 -60
-7 -6 -34 -26 -62 -45 -27 -19 -62 -45 -77 -59 -16 -14 -28 -21 -29 -15 0 5
-2 122 -3 259 -2 231 -4 255 -25 318 -26 76 -92 169 -147 207 -20 14 -43 32
-53 40 -9 8 -20 15 -26 16 -19 1 -70 17 -81 25 -6 5 -46 10 -88 11 -42 1 -79
5 -82 10 -3 5 -11 5 -17 1 -18 -12 -90 -13 -104 -2 -6 6 -14 6 -17 1 -6 -10
-232 -9 -242 1 -4 3 -14 3 -23 -2 -9 -4 -34 -7 -56 -5 -169 10 -241 17 -264
25 -14 6 -26 9 -26 8 0 -2 -22 3 -48 10 -78 22 -122 93 -142 226 -11 82 -16
313 -15 800 0 143 1 474 0 485 0 8 0 116 0 240 1 124 1 232 0 240 0 8 0 116 0
240 1 124 0 232 0 240 -5 229 1 564 11 577 7 7 6 14 -1 18 -6 3 -8 9 -6 13 2
4 7 38 11 77 3 38 11 75 16 81 5 6 6 14 3 17 -11 11 27 90 56 118 28 27 95 53
112 43 4 -3 8 -1 8 4 0 13 180 30 181 17 0 -5 3 -4 6 3 4 9 43 12 160 11 85 0
156 1 158 3 2 2 339 0 430 -3z"/>
<path d="M5355 5651 c-3 -5 -2 -12 3 -15 5 -3 9 1 9 9 0 17 -3 19 -12 6z"/>
<path d="M3595 5641 c-3 -5 -2 -12 3 -15 5 -3 9 1 9 9 0 17 -3 19 -12 6z"/>
<path d="M1353 5485 c0 -8 4 -12 9 -9 5 3 6 10 3 15 -9 13 -12 11 -12 -6z"/>
<path d="M3116 5478 c3 -5 10 -6 15 -3 13 9 11 12 -6 12 -8 0 -12 -4 -9 -9z"/>
<path d="M4393 5475 c0 -8 4 -12 9 -9 5 3 6 10 3 15 -9 13 -12 11 -12 -6z"/>
<path d="M2153 5325 c0 -8 4 -12 9 -9 5 3 6 10 3 15 -9 13 -12 11 -12 -6z"/>
<path d="M3913 5165 c0 -8 4 -12 9 -9 5 3 6 10 3 15 -9 13 -12 11 -12 -6z"/>
<path d="M1346 5162 c-3 -5 1 -9 9 -9 8 0 12 4 9 9 -3 4 -7 8 -9 8 -2 0 -6 -4
-9 -8z"/>
<path d="M5355 5161 c-3 -5 -2 -12 3 -15 5 -3 9 1 9 9 0 17 -3 19 -12 6z"/>
<path d="M4546 4998 c3 -5 10 -6 15 -3 13 9 11 12 -6 12 -8 0 -12 -4 -9 -9z"/>
<path d="M5440 4880 c-9 -6 -10 -10 -3 -10 6 0 15 5 18 10 8 12 4 12 -15 0z"/>
<path d="M2633 4845 c0 -8 4 -12 9 -9 5 3 6 10 3 15 -9 13 -12 11 -12 -6z"/>
<path d="M1835 4841 c-3 -5 -2 -12 3 -15 5 -3 9 1 9 9 0 17 -3 19 -12 6z"/>
<path d="M3276 4838 c3 -5 10 -6 15 -3 13 9 11 12 -6 12 -8 0 -12 -4 -9 -9z"/>
<path d="M3906 4838 c3 -5 10 -6 15 -3 13 9 11 12 -6 12 -8 0 -12 -4 -9 -9z"/>
<path d="M4873 4835 c0 -8 4 -12 9 -9 5 3 6 10 3 15 -9 13 -12 11 -12 -6z"/>
<path d="M1905 4800 c-3 -6 1 -7 9 -4 18 7 21 14 7 14 -6 0 -13 -4 -16 -10z"/>
<path d="M4470 4646 c0 -2 7 -7 16 -10 8 -3 12 -2 9 4 -6 10 -25 14 -25 6z"/>
<path d="M4786 4638 c3 -5 10 -6 15 -3 13 9 11 12 -6 12 -8 0 -12 -4 -9 -9z"/>
<path d="M2475 4531 c-3 -5 -2 -12 3 -15 5 -3 9 1 9 9 0 17 -3 19 -12 6z"/>
<path d="M2626 4522 c-3 -5 1 -9 9 -9 8 0 12 4 9 9 -3 4 -7 8 -9 8 -2 0 -6 -4
-9 -8z"/>
<path d="M5676 4518 c3 -5 10 -6 15 -3 13 9 11 12 -6 12 -8 0 -12 -4 -9 -9z"/>
<path d="M2260 4364 c-24 -7 -48 -10 -53 -7 -6 3 -7 1 -4 -4 4 -6 -7 -16 -23
-23 -39 -16 -87 -72 -114 -129 -15 -34 -20 -68 -21 -128 -1 -45 2 -80 7 -77 4
3 8 -2 8 -11 0 -26 46 -91 93 -129 24 -20 47 -36 50 -36 3 0 18 -5 34 -11 100
-41 245 -4 315 80 14 16 29 28 32 25 3 -2 4 -1 1 2 -2 4 5 25 17 48 34 65 31
174 -5 248 -61 124 -208 190 -337 152z"/>
<path d="M3426 4369 c2 -4 -10 -9 -26 -13 -17 -3 -36 -10 -43 -15 -105 -83
-136 -132 -144 -230 -6 -76 7 -133 41 -184 13 -19 21 -39 18 -44 -4 -4 -3 -5
2 -1 4 4 22 -6 40 -23 17 -16 46 -34 64 -40 18 -6 30 -14 28 -18 -9 -14 180
-7 198 8 9 7 16 10 16 7 0 -10 82 49 103 74 66 79 87 191 56 290 -14 41 -59
106 -89 127 -11 8 -17 19 -14 25 4 6 2 8 -3 5 -6 -4 -32 3 -58 14 -45 20 -200
35 -189 18z"/>
<path d="M4595 4365 c-96 -29 -151 -75 -193 -165 -34 -72 -35 -168 -1 -237 28
-58 92 -124 139 -142 19 -8 40 -17 45 -21 6 -3 33 -6 60 -6 28 1 53 -3 57 -9
5 -6 8 -5 8 3 0 6 9 12 21 12 35 0 106 38 145 78 35 35 77 112 77 140 0 6 3
12 6 12 11 0 2 91 -14 147 -21 73 -108 163 -176 182 -64 18 -128 20 -174 6z"/>
<path d="M2793 4205 c0 -8 4 -12 9 -9 5 3 6 10 3 15 -9 13 -12 11 -12 -6z"/>
<path d="M4066 4202 c-3 -5 1 -9 9 -9 8 0 12 4 9 9 -3 4 -7 8 -9 8 -2 0 -6 -4
-9 -8z"/>
<path d="M4033 4125 c0 -8 4 -12 9 -9 5 3 6 10 3 15 -9 13 -12 11 -12 -6z"/>
<path d="M5355 3881 c-3 -5 -2 -12 3 -15 5 -3 9 1 9 9 0 17 -3 19 -12 6z"/>
<path d="M4460 3686 c0 -2 8 -10 18 -17 15 -13 16 -12 3 4 -13 16 -21 21 -21
13z"/>
<path d="M1513 3565 c0 -8 4 -12 9 -9 5 3 6 10 3 15 -9 13 -12 11 -12 -6z"/>
<path d="M4873 3405 c0 -8 4 -12 9 -9 5 3 6 10 3 15 -9 13 -12 11 -12 -6z"/>
<path d="M5355 3411 c-3 -5 -2 -12 3 -15 5 -3 9 1 9 9 0 17 -3 19 -12 6z"/>
<path d="M1826 3402 c-3 -5 1 -9 9 -9 8 0 12 4 9 9 -3 4 -7 8 -9 8 -2 0 -6 -4
-9 -8z"/>
<path d="M3113 3245 c0 -8 4 -12 9 -9 5 3 6 10 3 15 -9 13 -12 11 -12 -6z"/>
<path d="M4546 3242 c-3 -5 1 -9 9 -9 8 0 12 4 9 9 -3 4 -7 8 -9 8 -2 0 -6 -4
-9 -8z"/>
<path d="M4514 3166 c1 -8 5 -18 8 -22 4 -3 5 1 4 10 -1 8 -5 18 -8 22 -4 3
-5 -1 -4 -10z"/>
<path d="M2473 3085 c0 -8 4 -12 9 -9 5 3 6 10 3 15 -9 13 -12 11 -12 -6z"/>
<path d="M2635 3081 c-3 -5 -2 -12 3 -15 5 -3 9 1 9 9 0 17 -3 19 -12 6z"/>
<path d="M5196 3078 c3 -5 10 -6 15 -3 13 9 11 12 -6 12 -8 0 -12 -4 -9 -9z"/>
<path d="M2146 2922 c-3 -5 1 -9 9 -9 8 0 12 4 9 9 -3 4 -7 8 -9 8 -2 0 -6 -4
-9 -8z"/>
<path d="M3915 2921 c-3 -5 -2 -12 3 -15 5 -3 9 1 9 9 0 17 -3 19 -12 6z"/>
<path d="M1915 2849 c-4 -6 -5 -12 -2 -15 2 -3 7 2 10 11 7 17 1 20 -8 4z"/>
<path d="M2116 2847 c3 -10 9 -15 12 -12 3 3 0 11 -7 18 -10 9 -11 8 -5 -6z"/>
<path d="M3426 2762 c-3 -5 1 -9 9 -9 8 0 12 4 9 9 -3 4 -7 8 -9 8 -2 0 -6 -4
-9 -8z"/>
<path d="M4555 2761 c-3 -5 -2 -12 3 -15 5 -3 9 1 9 9 0 17 -3 19 -12 6z"/>
<path d="M4395 2611 c-3 -5 -2 -12 3 -15 5 -3 9 1 9 9 0 17 -3 19 -12 6z"/>
<path d="M1515 2601 c-3 -5 -2 -12 3 -15 5 -3 9 1 9 9 0 17 -3 19 -12 6z"/>
<path d="M5506 2598 c3 -5 10 -6 15 -3 13 9 11 12 -6 12 -8 0 -12 -4 -9 -9z"/>
<path d="M3553 2515 c0 -8 4 -12 9 -9 5 3 6 10 3 15 -9 13 -12 11 -12 -6z"/>
<path d="M5355 2451 c-3 -5 -2 -12 3 -15 5 -3 9 1 9 9 0 17 -3 19 -12 6z"/>
<path d="M1995 2441 c-3 -5 -2 -12 3 -15 5 -3 9 1 9 9 0 17 -3 19 -12 6z"/>
<path d="M2473 2435 c0 -8 4 -12 9 -9 5 3 6 10 3 15 -9 13 -12 11 -12 -6z"/>
<path d="M3756 2442 c-3 -5 1 -9 9 -9 8 0 12 4 9 9 -3 4 -7 8 -9 8 -2 0 -6 -4
-9 -8z"/>
<path d="M2955 2131 c-3 -5 -2 -12 3 -15 5 -3 9 1 9 9 0 17 -3 19 -12 6z"/>
</g>
</svg>
